<?xml version="1.0" encoding="UTF-8"?> <svg xmlns="http://www.w3.org/2000/svg" viewBox="0 0 162.34 35.68"><defs><style>.cls-1{fill:#918f8f;}.cls-2{fill:#241f21;}</style></defs><title>Asset 7</title><g id="Layer_2" data-name="Layer 2"><g id="Layer_1-2" data-name="Layer 1"><path class="cls-1" d="M32.12,4.45c0-.62-.14-.91-.6-.91H30.7c-.1,0-.14,0-.14-.16V3c0-.11,0-.14.18-.14s1,.05,2.72.05c1.49,0,2.34-.05,2.55-.05s.14,0,.14.12V3.4c0,.11,0,.14-.14.14h-.74a.79.79,0,0,0-.87.71c0,.22,0,1.3,0,2.35V8.85c0,.9,0,2.19,0,2.77A4.42,4.42,0,0,0,35,13.86,2.88,2.88,0,0,0,37.43,15a3.69,3.69,0,0,0,2.37-.87,4.28,4.28,0,0,0,1-3.06V7.8a31.74,31.74,0,0,0-.2-3.46c-.05-.47-.33-.8-.72-.8h-.64c-.11,0-.14,0-.14-.12V3c0-.11,0-.14.14-.14s1,.05,2.16.05,1.66-.05,1.8-.05.18.05.18.14v.42c0,.11,0,.16-.1.16h-.64a.7.7,0,0,0-.74.71c0,.22,0,2.75,0,3s0,3.4-.11,4.13a4.83,4.83,0,0,1-1.48,3.47A4.73,4.73,0,0,1,37.07,16a7,7,0,0,1-2.54-.44,3.64,3.64,0,0,1-2.09-2.43,16.29,16.29,0,0,1-.32-4.36Z"></path><path class="cls-1" d="M43.91,11.66c.07,0,.1,0,.1.14a4.24,4.24,0,0,0,.68,2.06A2.73,2.73,0,0,0,47,15.17a2.19,2.19,0,0,0,2.31-2.12c0-1.67-.75-2.21-2.63-2.93A8.6,8.6,0,0,1,44.12,8.6,3.52,3.52,0,0,1,43.24,6a3.1,3.1,0,0,1,1.24-2.54A3.56,3.56,0,0,1,47,2.6,5.33,5.33,0,0,1,49.22,3,.3.3,0,0,0,49.59,3l.23-.24a.32.32,0,0,1,.25-.1c.11,0,.14.1.14.29s.29,2.82.29,3,0,.11-.11.13l-.28.09A.13.13,0,0,1,49.93,6a5.24,5.24,0,0,0-1.1-1.92A2.32,2.32,0,0,0,47,3.36a1.91,1.91,0,0,0-2,1.83,2.27,2.27,0,0,0,.49,1.63,5.76,5.76,0,0,0,2.16,1.12,5.51,5.51,0,0,1,2.55,1.42,3.48,3.48,0,0,1,.89,2.58,3.75,3.75,0,0,1-3.76,4,4.58,4.58,0,0,1-3-.87c-.21-.15-.32-.22-.42-.22s-.18.14-.28.32-.18.22-.32.22-.22-.11-.22-.29.29-3.15.32-3.37,0-.14.11-.14Z"></path><path class="cls-1" d="M63.56,12.74a.14.14,0,0,1,0,.18,6.31,6.31,0,0,1-5.27,3,6.17,6.17,0,0,1-4.64-1.7,7,7,0,0,1-1.91-4.89,7.12,7.12,0,0,1,1.81-4.85,6,6,0,0,1,4.6-1.92,7.54,7.54,0,0,1,3.57.87c.25.15.32.15.36,0L62.25,3c0-.11.07-.11.28-.11s.25,0,.25.29S63.13,6.4,63.2,7c0,.11,0,.16-.07.18l-.33.11c-.09,0-.14,0-.2-.18A6.3,6.3,0,0,0,61.22,4.7a4.18,4.18,0,0,0-3.08-1.34c-2.83,0-4,2.61-4,5.22a7.45,7.45,0,0,0,1.63,4.71,3.79,3.79,0,0,0,3,1.41,5.16,5.16,0,0,0,4.23-2.1c.08-.13.15-.18.21-.13Z"></path><path class="cls-2" d="M69.49,15.58a3.25,3.25,0,0,1-2.1-2.42,18.86,18.86,0,0,1-.29-4.4V4.45c0-.64-.12-.93-.67-.93H65.6c-.11,0-.12,0-.12-.16V3c0-.11,0-.14.15-.14s1.05.05,2.43.05,2.23-.05,2.43-.05.15,0,.15.11V3.4c0,.09,0,.12-.14.12h-.88a.8.8,0,0,0-.85.75c0,.16,0,1.43,0,2.35V7.81c0,1,.07,3.27.09,3.84A4.45,4.45,0,0,0,69.39,14a3.28,3.28,0,0,0,2.81,1.3,3.75,3.75,0,0,0,2.66-1,4.56,4.56,0,0,0,.92-3.18V7.2c0-1.38,0-2.43-.09-2.88a.8.8,0,0,0-.8-.8h-.77c-.11,0-.13,0-.13-.14V2.94c0-.09,0-.12.13-.12s1,.05,2.17.05,1.79-.05,1.95-.05.18.07.18.12v.4c0,.11,0,.18-.11.18h-.73c-.65,0-.7.51-.76.73s0,2.75,0,3,0,3.43-.09,4.14a4.77,4.77,0,0,1-1.49,3.49A4.67,4.67,0,0,1,71.88,16a6.32,6.32,0,0,1-2.39-.39"></path><path class="cls-2" d="M84.7,14.72c0,.29.16.38.39.38h.57c.16,0,.19.05.19.16v.29c0,.13,0,.2-.14.2S85,15.69,84,15.69s-1.47.06-1.6.06-.14-.06-.14-.2v-.29c0-.13.06-.16.23-.16H83c.19,0,.33-.09.35-.42s0-1,0-1.52V10.77c0-.73,0-1.25-.52-1.63a1.88,1.88,0,0,0-1.29-.33,2.06,2.06,0,0,0-1.43.71,1.78,1.78,0,0,0-.41,1.23V14.5c0,.49,0,.6.43.6h.44c.14,0,.17.05.17.18v.3c0,.11,0,.17-.12.17s-.6-.06-1.54-.06-1.47.06-1.57.06-.13-.06-.13-.17v-.32c0-.11,0-.16.18-.16h.51c.23,0,.35-.06.35-.37V10.5a1.1,1.1,0,0,0-.72-1.07l-.14-.07c-.13-.06-.14-.11-.14-.17V9.1c0-.09.07-.14.16-.18l1.52-.87a.92.92,0,0,1,.32-.12c.09,0,.12.07.14.21l.12,1.11h0a3.49,3.49,0,0,1,2.42-1.32,2.71,2.71,0,0,1,1.51.39,2.68,2.68,0,0,1,1,1.72Z"></path><path class="cls-2" d="M86.84,4.9A1,1,0,0,1,87.92,4a.89.89,0,0,1,.92.89,1,1,0,0,1-1,1,1,1,0,0,1-1-.94m.8,5.52c0-.61-.1-.94-1-1.08-.12,0-.16-.06-.16-.13V9.05c0-.06,0-.09.12-.13A15.06,15.06,0,0,0,88.53,8a.71.71,0,0,1,.33-.11c.09,0,.11.09.09.22,0,.31,0,1.45,0,2.95v2c0,.7,0,1.36,0,1.55,0,.35.09.48.29.48H90c.14,0,.18.05.18.16v.31c0,.12,0,.18-.16.18s-1-.06-1.7-.06c-1,0-1.72.06-1.91.06s-.14,0-.14-.15v-.36c0-.11,0-.14.17-.14h.87c.2,0,.27-.08.28-.37,0-.54,0-1.1,0-1.64Z"></path><path class="cls-2" d="M93.94,14H94c.28-.71,1.52-3.81,1.7-4.51.12-.49,0-.78-.32-.78H95S95,8.65,95,8.56V8.23c0-.11,0-.14.11-.14.24,0,.64.05,1.41.05s1.12-.05,1.28-.05.16,0,.16.16v.31c0,.12,0,.18-.09.18h-.34a.73.73,0,0,0-.55.2,18.76,18.76,0,0,0-1.41,2.9c-.22.54-1.52,3.58-1.59,3.71s-.23.41-.43.41-.28-.16-.37-.38-1.33-3.53-1.38-3.67-.78-2.21-.9-2.5c-.23-.52-.41-.67-.73-.67h-.35c-.09,0-.11-.07-.11-.18V8.23c0-.12,0-.14.19-.14s.5.05,1.49.05,1.4-.05,1.59-.05.18,0,.18.14v.33c0,.11,0,.18-.12.18h-.36a.31.31,0,0,0-.32.34,16.08,16.08,0,0,0,.57,2.14c.11.34.87,2.43,1.06,2.81"></path><path class="cls-2" d="M101.56,10.33c.33,0,.47-.09.47-.25,0-.42-.21-1.61-1.36-1.61-.78,0-1.52.52-1.86,1.86Zm-2.82.55a5.31,5.31,0,0,0,0,.86c0,1.78,1.1,3.12,2.51,3.12a2.41,2.41,0,0,0,2.15-1.23.13.13,0,0,1,.15-.09l.23.13c.06,0,.09.07,0,.27a3.25,3.25,0,0,1-5.59.68,4.37,4.37,0,0,1-.78-2.86,4.11,4.11,0,0,1,1.12-2.87,3.23,3.23,0,0,1,2.53-1,2.68,2.68,0,0,1,2.6,2.67c0,.25-.21.29-.5.29Z"></path><path class="cls-2" d="M105.27,10.88c0-.93-.15-1.11-.64-1.38l-.34-.18c-.1,0-.14-.06-.14-.13V9.08c0-.07,0-.1.14-.16L106,8a.51.51,0,0,1,.25-.08c.11,0,.13.11.13.22l.09,1.25h.07a3,3,0,0,1,2.12-1.57.81.81,0,0,1,.9.79.86.86,0,0,1-.74.89,1.13,1.13,0,0,1-.51-.14,1.08,1.08,0,0,0-.59-.15,1.25,1.25,0,0,0-1,.76,2,2,0,0,0-.18.58v3.8c0,.57.12.75.49.75h.84c.1,0,.12.05.12.16v.32c0,.11,0,.17-.09.17s-.92-.06-1.87-.06-1.84.06-2,.06-.11,0-.11-.18v-.31c0-.13,0-.16.2-.16h.69c.26,0,.39-.11.39-.35,0-.6,0-1.23,0-2.17Z"></path><path class="cls-2" d="M110,15.39c-.09-.06-.09-.17-.11-.26l-.3-1.72c0-.09,0-.12.1-.14l.24-.06c.07,0,.12,0,.15.11l.45.89c.35.67.6,1.12,1.54,1.12a1.3,1.3,0,0,0,1.4-1.23c0-.81-.39-1.29-1.72-1.67-1.05-.3-2.09-.86-2.09-2.3a2.36,2.36,0,0,1,2.48-2.21,3.16,3.16,0,0,1,1.63.39c.26.12.3.21.31.32l.27,1.27a.16.16,0,0,1-.12.16l-.22.07c-.06,0-.1,0-.15-.09l-.61-.83a1.35,1.35,0,0,0-1.24-.71,1.26,1.26,0,0,0-1.36,1.2c0,1.05.83,1.25,1.7,1.5,1.29.38,2.11.93,2.12,2.32a2.45,2.45,0,0,1-2.69,2.39,3.3,3.3,0,0,1-1.78-.52"></path><path class="cls-2" d="M115.49,4.9A1,1,0,0,1,116.57,4a.89.89,0,0,1,.92.89,1,1,0,0,1-1,1,1,1,0,0,1-1-.94m.8,5.52c0-.61-.11-.94-1-1.08-.12,0-.15-.06-.15-.13V9.05c0-.06,0-.09.12-.13A14.37,14.37,0,0,0,117.17,8a.74.74,0,0,1,.34-.11c.08,0,.1.09.08.22,0,.31,0,1.45,0,2.95v2c0,.7,0,1.36,0,1.55,0,.35.09.48.28.48h.82c.14,0,.17.05.17.16v.31c0,.12,0,.18-.16.18s-1-.06-1.7-.06c-1,0-1.71.06-1.91.06s-.14,0-.14-.15v-.36c0-.11,0-.14.18-.14H116c.2,0,.27-.08.29-.37,0-.54,0-1.1,0-1.64Z"></path><path class="cls-2" d="M121.14,13.43c0,1.36.6,1.59.92,1.59a2.5,2.5,0,0,0,1.16-.23.15.15,0,0,1,.22,0l.09.17c0,.07,0,.14,0,.2a3,3,0,0,1-2,.72,1.82,1.82,0,0,1-1.71-1.54c0-.74,0-2.34,0-2.59v-.4c0-.32,0-1.54,0-2.3h-1.08c-.16,0-.27-.07-.27-.21s.11-.2.32-.33a8,8,0,0,0,2-2.28.23.23,0,0,1,.25-.18c.14,0,.17.12.17.27l-.09,1.79h2.47c.1,0,.16.09.12.16l-.18.64c0,.09,0,.14-.16.14h-2.28c0,.84,0,1.71,0,2.54Z"></path><path class="cls-2" d="M124.16,19.7A.79.79,0,0,1,125,19a2.87,2.87,0,0,1,.82.2.41.41,0,0,0,.37-.11,21.94,21.94,0,0,0,1.41-3.1c-.08-.45-2-6.1-2.1-6.48s-.38-.76-.84-.76h-.46c-.12,0-.14-.05-.14-.16V8.21c0-.07,0-.12.14-.12s.59.05,1.63.05,1.45-.05,1.65-.05.16.05.16.12v.38c0,.1,0,.15-.11.15h-.33c-.2,0-.27.13-.24.4s1.26,4.38,1.46,4.78h.07c.17-.29,1.71-4,1.82-4.49s0-.69-.3-.69h-.28c-.11,0-.13-.05-.13-.15V8.23c0-.09,0-.14.11-.14s.6.05,1.45.05c.48,0,.89-.05,1.08-.05s.11.07.11.14v.35c0,.11,0,.16-.09.16H132a.76.76,0,0,0-.62.33,61.85,61.85,0,0,0-2.78,6.08c-.87,2-1.56,3.69-1.88,4.29s-.57,1.18-1.5,1.18a.88.88,0,0,1-1-.92"></path><path class="cls-2" d="M139.8,11.75c0-2-1.44-3.28-2.34-3.28a1.68,1.68,0,0,0-1.36.58,3.59,3.59,0,0,0-.94,2.84,4,4,0,0,0,.67,2.54,2,2,0,0,0,1.75.94c1.35,0,2.22-1.69,2.22-3.62m-5.12,2.91a3.89,3.89,0,0,1-1-2.95,3.88,3.88,0,0,1,1.52-2.92,3.78,3.78,0,0,1,2.37-.86,3.72,3.72,0,0,1,2.48,1,4.06,4.06,0,0,1-2.71,6.94,3.51,3.51,0,0,1-2.69-1.25"></path><path class="cls-2" d="M143.09,9h-1.22c-.09,0-.13,0-.09-.2l.07-.54c0-.11.07-.13.21-.13h1V7.8A5.48,5.48,0,0,1,144.28,4a3.75,3.75,0,0,1,2.9-1.43c.83,0,1.61.33,1.61,1a.85.85,0,0,1-.75.78,1,1,0,0,1-.49-.11,1.89,1.89,0,0,1-.43-.41,1,1,0,0,0-.81-.42,1.58,1.58,0,0,0-1.33.63c-.65.86-.62,2.43-.62,3.7v.36h2.15a.13.13,0,0,1,.12.18l-.09.6c0,.07-.09.09-.23.09h-1.95v1.61c0,2.14,0,3.81,0,4s.09.48.46.48h1c.16,0,.19,0,.19.14v.29c0,.15,0,.22-.12.22s-.76-.06-2.12-.06c-1,0-1.88.06-2,.06s-.14,0-.14-.13v-.4c0-.09,0-.12.17-.12h.85c.34,0,.41-.22.43-.64V9Z"></path><path class="cls-2" d="M32.72,32c-.21-.16-.32-.22-.41-.22s-.17.13-.28.31-.2.22-.32.22-.19-.09-.16-.29c.07-.45.25-2.75.3-3.28,0-.11,0-.11.13-.11l.26,0c.07,0,.11,0,.11.14a3.59,3.59,0,0,0,.64,2.1,2.92,2.92,0,0,0,2.47,1.35A2.28,2.28,0,0,0,37.87,30c0-1.87-1.31-2.56-2.72-3.06a7,7,0,0,1-2.59-1.47,3.62,3.62,0,0,1-.88-2.65,3.42,3.42,0,0,1,1.09-2.31,3.46,3.46,0,0,1,2.48-.87,4.93,4.93,0,0,1,2.09.45c.16.09.25.07.34,0l.23-.22a.34.34,0,0,1,.23-.1c.08,0,.14.14.14.3,0,.64.23,2.48.25,2.88,0,.09,0,.13-.09.15l-.22.05s-.08,0-.1-.05A4.36,4.36,0,0,0,37,21a2.43,2.43,0,0,0-1.93-.78A2,2,0,0,0,33,22.37a2.2,2.2,0,0,0,.55,1.57,5.51,5.51,0,0,0,2,1.09,5.63,5.63,0,0,1,2.85,1.5A3.59,3.59,0,0,1,39.15,29c0,2.14-1.28,4-3.62,4A4.29,4.29,0,0,1,32.72,32"></path><path class="cls-2" d="M46.07,28.74c0-2-1.44-3.28-2.34-3.28a1.68,1.68,0,0,0-1.36.58,3.62,3.62,0,0,0-.94,2.85,4,4,0,0,0,.67,2.53,2,2,0,0,0,1.76.94c1.34,0,2.21-1.68,2.21-3.62M41,31.66a4.12,4.12,0,0,1,.55-5.87,3.55,3.55,0,0,1,4.85.18,4.05,4.05,0,0,1-2.71,6.94A3.55,3.55,0,0,1,41,31.66"></path><path class="cls-2" d="M54.85,29c0,.87,0,1.76,0,2.14.06.56.25.63.46.63a2.78,2.78,0,0,0,.59-.05c.14,0,.19,0,.21.07l0,.24c0,.11,0,.14-.08.16l-1.86.63a1,1,0,0,1-.36.08c-.07,0-.14,0-.16-.22l-.14-1h0a3.26,3.26,0,0,1-2.41,1.27,1.83,1.83,0,0,1-1.66-.84c-.73-1-.69-1.55-.69-3.55v-2.1c0-.5-.27-.63-.68-.68s-.39,0-.39-.13v-.33c0-.11,0-.14.2-.14H49.5a.82.82,0,0,0,.25,0l.2,0a.18.18,0,0,1,.19.22c0,.16-.07,1-.07,2.08v1.29a4.69,4.69,0,0,0,.39,2.72,1.46,1.46,0,0,0,1.41.68,2.46,2.46,0,0,0,1.53-.9,1,1,0,0,0,.17-.49V26.37c0-.51-.31-.6-.76-.63s-.39,0-.39-.13V25.3c0-.14,0-.16.22-.16h1.64a1.21,1.21,0,0,0,.3,0l.22,0a.15.15,0,0,1,.15.18,19.16,19.16,0,0,0-.1,2.41Z"></path><path class="cls-2" d="M58.71,30.43c0,1.35.6,1.59.92,1.59a2.42,2.42,0,0,0,1.17-.24.14.14,0,0,1,.21,0l.09.16a.14.14,0,0,1,0,.2,2.91,2.91,0,0,1-2,.73,1.82,1.82,0,0,1-1.72-1.54c0-.75,0-2.34,0-2.59v-.4c0-.33,0-1.54,0-2.3H56.39c-.16,0-.26-.07-.26-.22s.1-.2.31-.32a8.16,8.16,0,0,0,2-2.28c.06-.15.14-.19.25-.19s.18.13.18.28l-.09,1.79h2.46c.11,0,.16.09.12.16l-.17.63c0,.09-.06.15-.16.15H58.76c0,.83,0,1.7,0,2.53Z"></path><path class="cls-2" d="M62.75,22.82c0-1.11-.22-1.3-.85-1.52l-.31-.11c-.1,0-.12-.05-.12-.11v-.16c0-.08.05-.09.21-.18l1.84-1a1,1,0,0,1,.41-.14c.11,0,.18.14.14.45s0,4,0,4.89V26.1h.09a3.34,3.34,0,0,1,2.42-1.18,2.3,2.3,0,0,1,1.76.72,3.29,3.29,0,0,1,.76,2.67v1c0,1,0,2.14,0,2.48s.29.27.66.27H70c.14,0,.19,0,.19.16v.28c0,.14,0,.21-.14.21s-.69-.05-1.7-.05-1.5.05-1.66.05-.16-.05-.16-.2v-.3c0-.09,0-.15.12-.15h.41c.3,0,.66,0,.67-.34s0-1.22,0-1.79V28.49a2.9,2.9,0,0,0-.58-2.23A1.64,1.64,0,0,0,66,25.75a2.12,2.12,0,0,0-1.64.76,1.52,1.52,0,0,0-.36.89v4c0,.58,0,.74.39.74h.53c.12,0,.2,0,.2.15v.3c0,.13,0,.2-.15.2s-.87-.05-1.68-.05-1.56.05-1.72.05-.12-.05-.12-.18v-.32c0-.13.07-.15.27-.15h.37c.28,0,.55-.07.58-.29s.06-2.33.06-3.51Z"></path><path class="cls-2" d="M74.34,27.33c.34,0,.48-.09.48-.25,0-.42-.21-1.62-1.36-1.62-.78,0-1.53.53-1.86,1.87Zm-2.81.54a4.25,4.25,0,0,0-.06.87c0,1.78,1.1,3.12,2.52,3.12a2.39,2.39,0,0,0,2.14-1.24.15.15,0,0,1,.16-.09l.23.13s.09.07,0,.27a3.26,3.26,0,0,1-5.6.69,4.36,4.36,0,0,1-.77-2.86,4.11,4.11,0,0,1,1.11-2.88,3.23,3.23,0,0,1,2.53-1,2.68,2.68,0,0,1,2.61,2.66c0,.26-.22.29-.5.29Z"></path><path class="cls-2" d="M78,27.87c0-.92-.14-1.1-.64-1.37l-.33-.19c-.11,0-.14,0-.14-.12v-.11c0-.07,0-.11.14-.16L78.82,25a.6.6,0,0,1,.25-.07c.1,0,.12.11.12.22l.09,1.25h.07a3,3,0,0,1,2.13-1.58.81.81,0,0,1,.9.8.88.88,0,0,1-.74.89,1.18,1.18,0,0,1-.52-.15,1.11,1.11,0,0,0-.58-.14,1.26,1.26,0,0,0-1.05.76,2.08,2.08,0,0,0-.17.58v3.8c0,.56.12.74.49.74h.83c.11,0,.13.06.13.16v.33c0,.11,0,.16-.09.16s-.92-.05-1.88-.05-1.84.05-1.94.05-.11,0-.11-.18v-.31c0-.12,0-.16.19-.16h.69c.27,0,.39-.11.39-.34,0-.6,0-1.23,0-2.18Z"></path><path class="cls-2" d="M90,31.71c0,.29.16.38.39.38H91c.16,0,.2.06.2.16v.29c0,.13,0,.2-.14.2s-.68-.05-1.69-.05-1.46.05-1.59.05-.14-.05-.14-.2v-.29c0-.12,0-.16.23-.16h.51c.2,0,.34-.09.36-.42s0-1.05,0-1.52V27.76c0-.72,0-1.25-.51-1.63a1.94,1.94,0,0,0-1.29-.32,2,2,0,0,0-1.44.7,1.83,1.83,0,0,0-.41,1.23v3.75c0,.49.06.6.43.6H86c.15,0,.18.06.18.18v.31c0,.11,0,.16-.12.16s-.6-.05-1.54-.05-1.47.05-1.58.05-.12-.05-.12-.16v-.33c0-.1,0-.16.17-.16h.52c.23,0,.35-.05.35-.36V27.49a1.12,1.12,0,0,0-.72-1.07L83,26.35c-.12-.05-.14-.11-.14-.16V26.1a.2.2,0,0,1,.16-.18l1.52-.87a.87.87,0,0,1,.32-.13c.09,0,.13.07.15.22l.12,1.1h0a3.55,3.55,0,0,1,2.43-1.32A2.29,2.29,0,0,1,90,27Z"></path><path class="cls-2" d="M98.65,31.29a7.39,7.39,0,0,1-1.89-5.07,7,7,0,0,1,1.8-4.79A6.11,6.11,0,0,1,103,19.6a7.2,7.2,0,0,1,3.57,1c.23.15.32.13.36,0l.14-.52c0-.11.07-.11.23-.11s.2,0,.2.29.35,3,.44,3.51c0,.09,0,.16-.07.18l-.27.07c-.09,0-.12,0-.18-.14A6.79,6.79,0,0,0,106,21.62,4.08,4.08,0,0,0,103,20.23c-3.17,0-4.44,2.88-4.42,5.52a7.38,7.38,0,0,0,1.7,4.66,3.89,3.89,0,0,0,3.39,1.52,5.4,5.4,0,0,0,4.38-2.3c0-.09.09-.11.14-.06l.23.19s.09.07,0,.16a6.34,6.34,0,0,1-5.28,3,6.07,6.07,0,0,1-4.48-1.67"></path><path class="cls-2" d="M112.82,28.71c-.64.48-2.37.85-2.37,2.35a.88.88,0,0,0,.92,1c.51,0,1.45-.63,1.45-1.12Zm1.29,1.82c0,1,.22,1.36.53,1.36a.77.77,0,0,0,.62-.27c.08-.09.11-.13.18-.07l.18.14c0,.06.09.15,0,.33a1.47,1.47,0,0,1-1.38.89A1.33,1.33,0,0,1,113,31.69h0a3.74,3.74,0,0,1-1.76,1.11,3.17,3.17,0,0,1-1,.11c-.42,0-1.06-.37-1.06-1.51,0-.83.37-1.55,1.77-2.19a10.82,10.82,0,0,0,2-1.05V27a2.1,2.1,0,0,0-.25-1,1.31,1.31,0,0,0-1.06-.4,1.91,1.91,0,0,0-1.15.38c-.25.24-.09.51-.09.83,0,.64-.21,1-.94,1-.28,0-.42-.17-.42-.58a2.28,2.28,0,0,1,1.22-1.71,3.84,3.84,0,0,1,2.16-.63,1.79,1.79,0,0,1,1.42.49,1.62,1.62,0,0,1,.38,1.28v3.84Z"></path><path class="cls-2" d="M118.58,27.29c0,.94,0,3.68,0,4.24,0,.31.09.56.47.56h.79c.16,0,.2.06.2.17v.3c0,.11,0,.18-.11.18s-.9-.05-2-.05-1.84.05-2,.05-.12-.07-.12-.18v-.3c0-.13,0-.17.23-.17h.85c.19,0,.37-.13.38-.45,0-.56,0-3.68,0-4.73V25.77c0-1.28,0-2.93,0-3.4a1.08,1.08,0,0,0-.88-1.09l-.36-.13c-.09,0-.11,0-.11-.09v-.14c0-.06.06-.09.16-.13a16.14,16.14,0,0,0,2.07-1.05.64.64,0,0,1,.38-.14c.12,0,.16.09.14.32,0,1-.07,4.76-.07,5.76Z"></path><path class="cls-2" d="M120.79,21.9a1,1,0,0,1,1.08-.95.89.89,0,0,1,.92.89,1,1,0,0,1-1,1,1,1,0,0,1-1-.94m.8,5.52c0-.62-.11-.94-1-1.09-.13,0-.16,0-.16-.12V26c0-.05,0-.09.12-.12a14.37,14.37,0,0,0,1.91-.89.74.74,0,0,1,.34-.11c.09,0,.11.09.09.22,0,.3,0,1.45,0,2.95v2c0,.71,0,1.36,0,1.56s.09.47.28.47H124c.14,0,.17,0,.17.17v.3c0,.13,0,.18-.16.18s-.95-.05-1.69-.05c-1,0-1.72.05-1.92.05s-.14,0-.14-.14v-.36c0-.11.06-.15.18-.15h.87c.19,0,.26-.07.28-.36,0-.55,0-1.11,0-1.65Z"></path><path class="cls-2" d="M126.06,26h-1.22c-.09,0-.13,0-.09-.2l.07-.55c0-.11.07-.12.21-.12h1v-.35A5.48,5.48,0,0,1,127.24,21a3.77,3.77,0,0,1,2.91-1.43c.83,0,1.61.32,1.61,1a.86.86,0,0,1-.75.78,1.14,1.14,0,0,1-.49-.11,1.91,1.91,0,0,1-.43-.42,1,1,0,0,0-.81-.41,1.55,1.55,0,0,0-1.33.63c-.65.85-.62,2.43-.62,3.7v.36h2.14c.13,0,.15.1.13.18l-.09.6c0,.07-.09.09-.23.09h-2v1.61c0,2.13,0,3.8,0,4s.09.47.46.47h1c.16,0,.19,0,.19.15v.29c0,.14,0,.21-.12.21s-.76-.05-2.13-.05c-1,0-1.87.05-2,.05s-.14,0-.14-.12v-.4c0-.09,0-.13.17-.13h.85c.34,0,.41-.21.43-.63V26Z"></path><path class="cls-2" d="M135,28.74c0-2-1.43-3.28-2.34-3.28a1.7,1.7,0,0,0-1.36.58,3.62,3.62,0,0,0-.94,2.85,3.94,3.94,0,0,0,.68,2.53,1.93,1.93,0,0,0,1.75.94c1.35,0,2.21-1.68,2.21-3.62m-5.11,2.92a4.1,4.1,0,0,1,.55-5.87,3.55,3.55,0,0,1,4.85.18,4.06,4.06,0,0,1-2.71,6.94,3.55,3.55,0,0,1-2.69-1.25"></path><path class="cls-2" d="M137.8,27.87c0-.92-.14-1.1-.63-1.37l-.34-.19c-.1,0-.14,0-.14-.12v-.11c0-.07,0-.11.14-.16l1.75-.93a.6.6,0,0,1,.25-.07c.11,0,.12.11.12.22l.09,1.25h.08a3,3,0,0,1,2.12-1.58.81.81,0,0,1,.9.8.87.87,0,0,1-.74.89,1.22,1.22,0,0,1-.52-.15,1.11,1.11,0,0,0-.58-.14,1.25,1.25,0,0,0-1,.76,1.87,1.87,0,0,0-.18.58v3.8c0,.56.12.74.49.74h.84c.1,0,.12.06.12.16v.33c0,.11,0,.16-.09.16s-.92-.05-1.88-.05-1.83.05-1.94.05-.11,0-.11-.18v-.31c0-.12,0-.16.2-.16h.69c.26,0,.39-.11.39-.34,0-.6,0-1.23,0-2.18Z"></path><path class="cls-2" d="M149.68,31.71c0,.29.16.38.39.38h.57c.16,0,.19.06.19.16v.29c0,.13,0,.2-.14.2s-.67-.05-1.68-.05-1.47.05-1.59.05-.15-.05-.15-.2v-.29c0-.12.06-.16.24-.16H148c.19,0,.33-.09.35-.42s0-1.05,0-1.52V27.76c0-.72,0-1.25-.51-1.63a2,2,0,0,0-1.3-.32,2,2,0,0,0-1.43.7,1.78,1.78,0,0,0-.41,1.23v3.75c0,.49.05.6.43.6h.44c.14,0,.18.06.18.18v.31c0,.11,0,.16-.13.16s-.6-.05-1.54-.05-1.47.05-1.57.05-.13-.05-.13-.16v-.33c0-.1,0-.16.18-.16h.51c.23,0,.36-.05.36-.36V27.49a1.13,1.13,0,0,0-.73-1.07l-.14-.07c-.13-.05-.14-.11-.14-.16V26.1a.2.2,0,0,1,.16-.18l1.52-.87a.81.81,0,0,1,.32-.13c.09,0,.12.07.14.22l.12,1.1h0a3.53,3.53,0,0,1,2.42-1.32A2.28,2.28,0,0,1,149.68,27Z"></path><path class="cls-2" d="M151.83,21.9a1,1,0,0,1,1.08-.95.9.9,0,0,1,.92.89,1,1,0,0,1-1,1,1,1,0,0,1-1-.94m.79,5.52c0-.62-.1-.94-1-1.09-.12,0-.16,0-.16-.12V26q0-.08.12-.12a15.06,15.06,0,0,0,1.92-.89.75.75,0,0,1,.33-.11c.09,0,.11.09.09.22,0,.3,0,1.45,0,2.95v2c0,.71,0,1.36,0,1.56s.09.47.29.47H155c.14,0,.18,0,.18.17v.3c0,.13,0,.18-.16.18s-1-.05-1.7-.05c-1,0-1.72.05-1.91.05s-.14,0-.14-.14v-.36c0-.11.05-.15.17-.15h.87c.2,0,.27-.07.28-.36,0-.55,0-1.11,0-1.65Z"></path><path class="cls-2" d="M159.49,28.71c-.64.48-2.37.85-2.37,2.35a.88.88,0,0,0,.92,1c.51,0,1.45-.63,1.45-1.12Zm1.29,1.82c0,1,.22,1.36.53,1.36a.77.77,0,0,0,.62-.27c.07-.09.11-.13.18-.07l.18.14c.05.06.09.15,0,.33a1.47,1.47,0,0,1-1.38.89,1.33,1.33,0,0,1-1.26-1.22h0a3.74,3.74,0,0,1-1.76,1.11,3.17,3.17,0,0,1-1,.11c-.42,0-1.06-.37-1.06-1.51,0-.83.37-1.55,1.77-2.19a10.82,10.82,0,0,0,2-1.05V27a2.1,2.1,0,0,0-.25-1,1.31,1.31,0,0,0-1.06-.4,1.91,1.91,0,0,0-1.15.38c-.25.24-.09.51-.09.83,0,.64-.21,1-.94,1-.28,0-.42-.17-.42-.58a2.28,2.28,0,0,1,1.22-1.71,3.84,3.84,0,0,1,2.16-.63,1.75,1.75,0,0,1,1.41.49,1.59,1.59,0,0,1,.39,1.28v3.84Z"></path><path class="cls-2" d="M8.52,19.27H7.12c-.16,0-.3,0-.34-.2A.23.23,0,0,1,7,18.78a.23.23,0,0,0,0,.24c0,.1.13.08.26.08H8.75c0,.16-.23.17-.23.17"></path><path class="cls-2" d="M8.14,25.48H7.47c-.12,0-.23,0-.27-.15a.16.16,0,0,1,.12-.2.15.15,0,0,0,0,.14c0,.08.09.07.19.07H8.3c0,.13-.16.13-.16.13"></path><path class="cls-2" d="M9,18.46a1.06,1.06,0,0,0,.3-1.1v0a2.08,2.08,0,0,1,0-1.24l.07-.21-.22,0a1,1,0,0,0-.6.36,2.84,2.84,0,0,0-1.27-1.2c.19.62.22.85.06,1.11a1.5,1.5,0,0,0-.8-.4l-.25,0,.1.23a1,1,0,0,1-.11.94,1.92,1.92,0,0,0-.22.79,1,1,0,0,0,.39.81.71.71,0,0,0-.22.51.69.69,0,0,0,.32.59.83.83,0,0,0,.39.47l.22,4.62a.61.61,0,0,0,.06,1.21l.09,1.85a.49.49,0,0,0,.49.5.48.48,0,0,0,.48-.49l.08-1.86a.61.61,0,0,0,.54-.61.62.62,0,0,0-.48-.61l.2-4.61a.8.8,0,0,0,.4-.48.69.69,0,0,0,0-1.15M9,16.31a2.31,2.31,0,0,0,.11,1.13.77.77,0,0,1-.38.92H8.24a2.28,2.28,0,0,0,.5-1.28,2.21,2.21,0,0,0,0-.37l0-.12a1.22,1.22,0,0,1,.3-.28M7.7,15.65a2,2,0,0,1,.77,1.43,2.17,2.17,0,0,1-.58,1.28,1.14,1.14,0,0,1-.2-.62A1.26,1.26,0,0,1,7.9,17a.93.93,0,0,0-.37.64,1.4,1.4,0,0,0,.16.71H7.5a1,1,0,0,1-.12-1.12c0-.09.29-.44.32-.51a.35.35,0,0,0,0-.17,1.07,1.07,0,0,1-.1.14c-.07.08-.31.33-.38.42a1.09,1.09,0,0,0,0,1.24H7.08a1,1,0,0,1-.25-.81c0-.78,1-.88.87-1.9M6.34,17.71a1.5,1.5,0,0,1,.2-.66,1.5,1.5,0,0,0,.2-.91,1.28,1.28,0,0,1,.44.29c-.1.11-.2.22-.25.29a1.25,1.25,0,0,0-.12,1.64H6.75a.67.67,0,0,1-.41-.65M8,27.77A.21.21,0,0,1,7.8,28a.22.22,0,0,1-.22-.22l-.09-1.84H7.6l.07,1.78c0,.13.06.16.06.16l0-1.94h.4Zm.62-2.46a.34.34,0,0,1-.33.34h-1A.34.34,0,0,1,7,25.31.34.34,0,0,1,7.28,25h1a.34.34,0,0,1,.33.34M7.21,20.17l.18,0,.17,4.5H7.43Zm.38,0a3.94,3.94,0,0,0,.75,0l-.2,4.52H7.67Zm.68-.3h-1a.51.51,0,0,1-.4-.2H8.67a.49.49,0,0,1-.4.21m.46-.48H6.84A.36.36,0,0,1,6.5,19a.36.36,0,0,1,.34-.39H8.72a.4.4,0,0,1,0,.79"></path><path class="cls-2" d="M19.8,19.27H18.4c-.16,0-.3,0-.35-.2a.24.24,0,0,1,.18-.29.26.26,0,0,0,0,.24c0,.1.12.08.26.08H20c0,.16-.22.17-.22.17"></path><path class="cls-2" d="M19.42,25.48h-.68c-.11,0-.22,0-.26-.15a.16.16,0,0,1,.12-.2.12.12,0,0,0,0,.14c0,.08.09.07.18.07h.8c0,.13-.16.13-.16.13"></path><path class="cls-2" d="M20.32,18.46a1,1,0,0,0,.29-1.1v0a2.08,2.08,0,0,1,0-1.24l.06-.21-.22,0a1,1,0,0,0-.59.36,2.89,2.89,0,0,0-1.27-1.2c.19.62.21.85.06,1.11a1.5,1.5,0,0,0-.8-.4l-.25,0,.1.23a1,1,0,0,1-.11.94,1.78,1.78,0,0,0-.23.79,1,1,0,0,0,.4.81.7.7,0,0,0,.1,1.1.85.85,0,0,0,.38.47l.23,4.62a.61.61,0,0,0-.48.6.6.6,0,0,0,.53.61l.1,1.85a.48.48,0,0,0,.48.5.49.49,0,0,0,.49-.49l.08-1.86a.62.62,0,0,0,.54-.61.62.62,0,0,0-.49-.61l.2-4.61a.77.77,0,0,0,.4-.48.7.7,0,0,0,0-1.15m-.08-2.15a2.51,2.51,0,0,0,.1,1.13.76.76,0,0,1-.37.92h-.45A2.34,2.34,0,0,0,20,17.08a2.22,2.22,0,0,0,0-.37l0-.12a1.07,1.07,0,0,1,.3-.28M19,15.65a2,2,0,0,1,.77,1.43,2.17,2.17,0,0,1-.57,1.28,1.16,1.16,0,0,1,0-1.35.93.93,0,0,0-.37.64,1.3,1.3,0,0,0,.16.71h-.2a1,1,0,0,1-.11-1.12c.05-.09.29-.44.32-.51a.6.6,0,0,0,0-.17.8.8,0,0,1-.11.14c-.07.08-.3.33-.37.42a1.09,1.09,0,0,0,0,1.24h-.19a1,1,0,0,1-.24-.81c0-.78,1-.88.86-1.9m-1.35,2.06a1.49,1.49,0,0,1,.19-.66,1.37,1.37,0,0,0,.2-.91,1.19,1.19,0,0,1,.44.29l-.25.29a1.28,1.28,0,0,0-.12,1.64h0a.65.65,0,0,1-.41-.65m1.67,10.06a.22.22,0,1,1-.43,0l-.09-1.84h.11l.06,1.78c0,.13.07.16.07.16l0-1.94h.4Zm.62-2.46a.34.34,0,0,1-.33.34h-1a.34.34,0,0,1-.33-.34.34.34,0,0,1,.33-.34h1a.34.34,0,0,1,.33.34m-1.42-5.14.18,0,.16,4.5h-.12Zm.38,0a4,4,0,0,0,.75,0l-.2,4.52H19Zm.68-.3h-1a.53.53,0,0,1-.41-.2H20a.49.49,0,0,1-.4.21m.45-.48H18.12a.36.36,0,0,1-.34-.39.36.36,0,0,1,.34-.39H20a.4.4,0,0,1,0,.79"></path><path class="cls-2" d="M15.18,18.94a1.36,1.36,0,0,0,.44-1.5v0a2.89,2.89,0,0,1,0-1.75l.06-.21-.22,0a1.69,1.69,0,0,0-.84.54,4,4,0,0,0-1.4-1.52l-.34-.2.14.38a1.66,1.66,0,0,1,0,.94,1.56,1.56,0,0,1-.11.26,2.06,2.06,0,0,0-1.12-.58l-.25,0,.1.23a1.46,1.46,0,0,1-.15,1.34,2.44,2.44,0,0,0-.31,1.07A1.32,1.32,0,0,0,11.74,19a.91.91,0,0,0-.34.7.89.89,0,0,0,.49.8.88.88,0,0,0,.5.66l.29,6.49a.78.78,0,0,0-.64.77.81.81,0,0,0,.71.79l.12,2.61a.65.65,0,1,0,1.3,0l.12-2.61a.79.79,0,0,0,.74-.79.78.78,0,0,0-.67-.78l.29-6.49a.88.88,0,0,0,.52-.66.9.9,0,0,0,0-1.57m.05-3.08a3,3,0,0,0,.12,1.66,1.13,1.13,0,0,1-.5,1.32h-.77a3.06,3.06,0,0,0,.71-1.89,2.06,2.06,0,0,0-.1-.62,1.79,1.79,0,0,1,.54-.46m-1.94-.14a1.61,1.61,0,0,0,0-.75,2.79,2.79,0,0,1,1.18,2,2.85,2.85,0,0,1-.81,1.89h0a1.55,1.55,0,0,1-.27-.85,1.62,1.62,0,0,1,.3-1,1.31,1.31,0,0,0-.52.88,1.76,1.76,0,0,0,.22,1h-.27A1.4,1.4,0,0,1,13,17.29c.07-.12.4-.61.44-.71a.67.67,0,0,0,0-.23c-.06.09-.15.2-.15.2s-.42.45-.52.57a1.49,1.49,0,0,0,0,1.71h-.3a1.55,1.55,0,0,1,.08-2.09h0l.17-.19a2.18,2.18,0,0,0,.54-.83m-1.83,2.19a2.19,2.19,0,0,1,.28-.94A1.83,1.83,0,0,0,12,15.65a1.69,1.69,0,0,1,.76.47l-.21.24-.17.19a1.85,1.85,0,0,0-.22,2.3h-.1a1,1,0,0,1-.59-.95M13,21.26l.26,6.39H13l-.29-6.4H13Zm.94,10.58a.37.37,0,1,1-.74,0L13,29.23h.23l.1,2.54c0,.19.08.22.08.22l0-2.76H14Zm.86-3.4a.5.5,0,0,1-.49.5H12.81a.48.48,0,0,1-.48-.5.49.49,0,0,1,.48-.5h1.45a.5.5,0,0,1,.49.5m-.67-.79h-.72l-.08-6.39h1.09ZM14.26,21H12.75a.57.57,0,0,1-.54-.36h2.64a.64.64,0,0,1-.59.36m.5-.65H12.27a.61.61,0,0,1-.59-.61.6.6,0,0,1,.59-.6H14.9a.6.6,0,0,1-.14,1.18"></path><path class="cls-2" d="M12.14,19.73a.38.38,0,0,1,0-.38.35.35,0,0,0-.27.46c.06.31.27.34.54.34h2.25a.38.38,0,0,0,.37-.23H12.56c-.23,0-.36,0-.42-.19"></path><path class="cls-2" d="M12.7,28.46a.31.31,0,0,1,0-.31.29.29,0,0,0-.22.37c.06.24.22.27.43.27h1.23a.29.29,0,0,0,.29-.18H13c-.18,0-.28,0-.33-.15"></path><path class="cls-2" d="M27,7.79,27,7c-.05-.77-.14-1.58-.27-2.4L26.62,4q-.07-.45-.18-.9l-.05-.25-.24.07a10.26,10.26,0,0,1-1.06.23l-1.59.18c-.32,0-.65,0-1,0a14.23,14.23,0,0,1-2.71-.25L19.22,3h0a9.8,9.8,0,0,1-1.14-.34l-.74-.28A12.89,12.89,0,0,1,14.81,1L14.08.49,13.67.14,13.51,0l-.16.15A3.23,3.23,0,0,1,13,.48L12.23,1A14.51,14.51,0,0,1,9.71,2.38L9,2.66c-.36.13-.74.25-1.13.35h0l-.65.14a13.5,13.5,0,0,1-2.44.22c-.42,0-.83,0-1.21,0l-1.6-.19c-.63-.11-1-.21-1-.21L.65,2.88.6,3.12c0,.24-.1.48-.14.72l-.12.73C.21,5.38.13,6.17.07,6.93l0,.84C0,8.18,0,8.57,0,9v.81a28.13,28.13,0,0,0,.33,4,36.27,36.27,0,0,0,2.28,8.31c1.68,4.17,4.9,9.87,10.69,13.46l.25.16.25-.16c5.78-3.61,9-9.32,10.65-13.49a36.81,36.81,0,0,0,2.27-8.31,28.9,28.9,0,0,0,.32-4V9c0-.38,0-.77,0-1.17m-6.23,6-.06-.23a7.39,7.39,0,0,1-1.87.33h0a9.91,9.91,0,0,1-3.3-.58A7.46,7.46,0,0,0,14.29,13a4.61,4.61,0,0,0-1.33,0,7.63,7.63,0,0,0-1.49.4,10,10,0,0,1-3.31.59h0a9.49,9.49,0,0,1-2.37-.48l-.07.23.06-.23-.67-.2-.27-.08A7.6,7.6,0,0,0,3,12.91H3a4.57,4.57,0,0,0-2.2.55c0-.12,0-.29-.07-.51A4.61,4.61,0,0,1,3,12.35H3a7.1,7.1,0,0,1,1.73.23l.94.28.07-.23-.07.23a10,10,0,0,0,2.51.5h0a10.55,10.55,0,0,0,3.46-.62A6.7,6.7,0,0,1,13,12.37l.46,0h0l.72.07a8.48,8.48,0,0,1,1.19.33,10.4,10.4,0,0,0,3.45.61h0a8,8,0,0,0,2-.35l1.08-.32.39-.12a7.72,7.72,0,0,1,1.75-.23h0a4.64,4.64,0,0,1,2.27.6c0,.21-.05.37-.06.49a4.83,4.83,0,0,0-2.21-.53h0a8.34,8.34,0,0,0-1.89.26l-.39.12-1.06.31ZM8.19,12.32h0a10.51,10.51,0,0,0,2.24-.26,11.66,11.66,0,0,0,1.22-.36,7.19,7.19,0,0,1,1.39-.37l.49,0,.71.06a6.86,6.86,0,0,1,1.19.34,10.73,10.73,0,0,0,1.49.4,9.82,9.82,0,0,0,2,.2h0a8,8,0,0,0,2-.35l1.1-.32.36-.11a7.34,7.34,0,0,1,1.76-.24h0a5.11,5.11,0,0,1,2.35.59c0,.19,0,.37,0,.53a5.1,5.1,0,0,0-2.33-.56h0a7.73,7.73,0,0,0-1.89.25l-.38.12-1.07.31a8.42,8.42,0,0,1-1.88.34,9.87,9.87,0,0,1-3.3-.58L15,12.09a5.11,5.11,0,0,0-.7-.17,5.26,5.26,0,0,0-.78-.07,4.91,4.91,0,0,0-.55,0,5.43,5.43,0,0,0-.84.18l-.66.21a9.71,9.71,0,0,1-3.3.59h0a9.65,9.65,0,0,1-2.38-.48l-.94-.28A7.62,7.62,0,0,0,3,11.87H3a5.07,5.07,0,0,0-2.33.56c0-.16,0-.33-.05-.51A5.14,5.14,0,0,1,3,11.31H3a7.1,7.1,0,0,1,1.73.23l.94.28.07-.23-.07.23a9.93,9.93,0,0,0,2.51.5m5.36-1.51v0a5.09,5.09,0,0,0-.56,0,7.33,7.33,0,0,0-1.49.4,10.11,10.11,0,0,1-2.95.58,5,5,0,0,1,5-4.44h0a5.09,5.09,0,0,1,5,4.42,9.71,9.71,0,0,1-2.91-.57,8.63,8.63,0,0,0-1.27-.36v0a5.38,5.38,0,0,0-.78-.07m7.28.91-.06-.24a8.5,8.5,0,0,1-1.78.34,5.45,5.45,0,0,0-.37-1.4l8-.61c0,.56,0,1.07-.07,1.53a5.57,5.57,0,0,0-2.39-.54h0a8.32,8.32,0,0,0-1.89.25l-.36.11-1.1.32ZM26.58,9l-8.08,1.1c-.06-.13-.13-.26-.2-.39l8.26-1.85c0,.39,0,.77,0,1.14m-.32-4.27c.12.8.21,1.58.25,2.33l-8.36,2.4a5.26,5.26,0,0,0-.49-.65Zm-2.1-1A14.28,14.28,0,0,0,26,3.44l.09.46L17.48,8.63l-.28-.27ZM19.8,3.61a15.83,15.83,0,0,0,2.69.23h.33L17,8.19a4.76,4.76,0,0,0-.74-.53Zm-2-.52c.5.17.89.28,1.1.33l-3,4.06-.46-.2ZM14.74,1.57a14.47,14.47,0,0,0,2.37,1.25l-2,4.34A5.85,5.85,0,0,0,14,6.93ZM13.52.65c.17.15.35.29.53.42l-.32,5.85h-.41L13,1.07c.23-.18.41-.32.52-.42m-1.22.92L13,6.93a5.91,5.91,0,0,0-1.14.24l-2-4.35A15.66,15.66,0,0,0,12.3,1.57M9.21,3.09l2.33,4.19c-.16.06-.31.14-.46.21l-3-4.06c.38-.1.75-.22,1.1-.34m-4.49.77a12.8,12.8,0,0,0,2.53-.23l3.52,4a4.38,4.38,0,0,0-.76.54L4.2,3.86h.52M1,3.47a17.77,17.77,0,0,0,1.83.29l7,4.62a3.45,3.45,0,0,0-.28.26L.92,3.92,1,3.47M.78,4.78,9.37,8.85a6.5,6.5,0,0,0-.46.61L.54,7.06c0-.73.12-1.49.24-2.28M.5,7.87,8.76,9.72c-.07.13-.14.27-.2.4L.47,9c0-.37,0-.75,0-1.15m7.93,2.54a6,6,0,0,0-.36,1.42,11.13,11.13,0,0,1-2.26-.47l-.94-.28A7.27,7.27,0,0,0,3,10.83H3a5.71,5.71,0,0,0-2.45.56c0-.47-.06-1-.07-1.59ZM24,21.86c-1.64,4.1-4.79,9.72-10.46,13.25C7.88,31.59,4.72,26,3.07,21.89A36.09,36.09,0,0,1,.85,14,4.1,4.1,0,0,1,3,13.39H3a7.1,7.1,0,0,1,1.73.23L5,13.7l.69.2h0a9.8,9.8,0,0,0,2.5.5h0a10.29,10.29,0,0,0,3.46-.62A7.19,7.19,0,0,1,13,13.41l.47,0h0l.72.07a7.31,7.31,0,0,1,1.19.33,10.4,10.4,0,0,0,3.45.61h0a7.93,7.93,0,0,0,2-.36l1.08-.31.39-.12a7.33,7.33,0,0,1,1.75-.23h0a4.32,4.32,0,0,1,2.13.56A36.36,36.36,0,0,1,24,21.86"></path></g></g></svg> 