<?xml version="1.0" encoding="UTF-8"?> <svg xmlns="http://www.w3.org/2000/svg" viewBox="0 0 125.49 23.89"><defs><style>.cls-1{fill:#1d295a;}</style></defs><title>Asset 4</title><g id="Layer_2" data-name="Layer 2"><g id="Layer_1-2" data-name="Layer 1"><path class="cls-1" d="M28.93,23.31h5.63V.71H28.93ZM57.3,8.21c0-4.12-2.82-7.46-8.63-7.46H37V23.36h5.43V5.53h6.67A2.51,2.51,0,0,1,51.84,8.2,2.51,2.51,0,0,1,49,10.82H44.34L51.4,23.35H57s-4.83-8.19-4.81-8.19A6.87,6.87,0,0,0,57.3,8.21M11.42.69,0,23.29H6.78l1.71-3.64h7.79l-2.43-4.95H10.78l2.9-6.18L21,23.3h6.8L15.91.69Zm106,8.76c-4.56-1-6.1-1.43-6.1-2.87,0-1.28,1.65-1.92,4.26-1.92a15.7,15.7,0,0,1,7.17,2.09l1.78-4.6a25,25,0,0,0-10-2.15c-5.52,0-9,3.22-9,7.17S108.4,12.85,114,14c4.36.92,5.54,1.47,5.54,2.83s-1.75,1.86-4.11,1.86a22.58,22.58,0,0,1-8.78-2.21L105,21a25.25,25.25,0,0,0,10.86,2.77c6.84,0,9.63-3.27,9.63-7.08,0-3.39-2.35-6-8-7.24M97.66.64V13.35c0,3.89-2.26,5.52-5,5.52s-5-1.63-5-5.51V.64H81.93V13.39c0,8.13,4.77,10.5,10.68,10.5s10.69-2.37,10.69-10.5V.64ZM77.24,11.7a5.37,5.37,0,0,0,2-4.63A6.51,6.51,0,0,0,72.63.69H59.39V23.3H73.15a6.9,6.9,0,0,0,7.08-6.64,5.63,5.63,0,0,0-3-5M64.83,5.47h7.79a2,2,0,0,1,2,1.91,2,2,0,0,1-2,1.92H64.83Zm7.93,13.06H64.83V14.07h7.94a2.31,2.31,0,0,1,2.36,2.22,2.32,2.32,0,0,1-2.37,2.24"></path></g></g></svg> 