<?xml version="1.0" encoding="UTF-8"?> <svg xmlns="http://www.w3.org/2000/svg" viewBox="0 0 136.07 22.69"><defs><style>.cls-1{fill:#070b0f;}.cls-2{fill:#0f7ac0;}.cls-3{fill:#ef4043;}.cls-4{fill:#ffd65b;}</style></defs><title>Asset 5</title><g id="Layer_2" data-name="Layer 2"><g id="Layer_1-2" data-name="Layer 1"><polygon class="cls-1" points="75.9 0 71.79 3.13 69.81 10.21 72.1 13.46 78.76 13.46 77.41 18.35 71.91 18.35 72.56 16.02 68.19 16.02 67.26 19.43 69.62 22.66 77.35 22.66 81.47 19.48 83.43 12.34 81.11 9.11 74.47 9.11 75.81 4.29 81.28 4.29 80.63 6.63 85.01 6.63 86 3.13 83.72 0 75.9 0"></polygon><polygon class="cls-1" points="92.58 0 88.46 3.13 83.93 19.45 86.31 22.66 94.03 22.66 98.16 19.45 99.43 14.85 95.07 14.85 94.1 18.35 88.61 18.35 92.53 4.26 98 4.26 97.02 7.81 101.37 7.81 102.69 3.13 100.44 0 92.58 0"></polygon><path class="cls-1" d="M122.76,0l-6.29,22.66h4.36l1.88-6.79h3.55l.82,6.79h4.26l-.93-7.72,3.07-2.49,2.59-9.32L133.78,0Zm3.17,4.26h5.47l-2,7.33H123.9Z"></path><polygon class="cls-1" points="49.11 0 45.57 12.79 43.47 0 39.14 0 32.85 22.66 37.22 22.66 40.81 9.82 42.95 22.66 47.21 22.66 53.48 0 49.11 0"></polygon><path class="cls-1" d="M59.19,0,55.11,3.11,49.68,22.66H54l1.88-6.78h5.5l-1.88,6.78h4.35L69.32,3.13,67,0Zm-.06,4.26h5.5l-2,7.32h-5.5Z"></path><path class="cls-1" d="M109.24,0l-4.09,3.13L99.73,22.66h4.37L106,15.88h5.5l-1.87,6.78H114l5.41-19.55L117.09,0Zm0,4.26h5.5l-2,7.32h-5.49Z"></path><polygon class="cls-2" points="28.06 0 21.76 22.66 30.47 22.66 36.74 0 28.06 0"></polygon><polygon class="cls-3" points="15.57 0.01 9.26 22.69 13.47 22.69 19.75 0.01 15.57 0.01"></polygon><polygon class="cls-3" points="21.46 0.01 15.16 22.69 19.37 22.69 25.64 0.01 21.46 0.01"></polygon><polygon class="cls-4" points="6.3 0.01 0 22.69 2.61 22.69 8.89 0.01 6.3 0.01"></polygon><polygon class="cls-4" points="10.59 0.01 4.29 22.69 6.9 22.69 13.18 0.01 10.59 0.01"></polygon></g></g></svg> 