<?xml version="1.0" encoding="UTF-8"?> <svg xmlns="http://www.w3.org/2000/svg" viewBox="0 0 102.28 26.76"><defs><style>.cls-1{fill:#346199;}</style></defs><title>Asset 2</title><g id="Layer_2" data-name="Layer 2"><g id="Layer_1-2" data-name="Layer 1"><path class="cls-1" d="M59.94,25.22a3.51,3.51,0,0,1-1.21,0c-.29,0-.36-.06-.42-.21s-.21-8.87-.16-12.31l0-2.69.48-.14a4,4,0,0,1,1.16-.15,1.94,1.94,0,0,1,1.22.28c1.27.63,2.13,2.18,2.54,4.54a22,22,0,0,1,0,4.3c-.33,2.57-1.17,4.64-2.29,5.65a2.69,2.69,0,0,1-1.39.71M63.55,7.67a7,7,0,0,0-1.67-.08,7.48,7.48,0,0,0-3.09.68l-.61.26s0-1.92,0-4.26a30.78,30.78,0,0,0,0-4.27c-.24,0-7.75,1.43-7.84,1.49s-.08.21-.07.45c0,.42,0,.39.89.59a2.31,2.31,0,0,1,.72.27,2.43,2.43,0,0,1,.73,1.36c.14.53.16.91.23,4.52s0,7.46-.05,14.38l0,2.88.53.12c.78.18,3,.55,3.74.62a27.38,27.38,0,0,0,4.36,0,8.9,8.9,0,0,0,7.26-5.59,13.63,13.63,0,0,0,.74-3,18.17,18.17,0,0,0-.14-4.15c-.73-3.35-2.83-5.67-5.66-6.26m-12,.27c0,.22-1.79,4.94-1.88,5a3,3,0,0,1-.78-.3,5.14,5.14,0,0,0-2.24-.56,3.53,3.53,0,0,0-2.29.75c-.17.19-.17.2-.21,2.9s.05,5.94.2,7.25c.12,1.12.42,1.67,1,1.92a10.54,10.54,0,0,0,1.93.27,1.36,1.36,0,0,1,0,.57l0,.57H41.88c-3,0-5.48,0-5.54,0s-.09-.21-.07-.57l0-.51.26-.05.68-.13a1.62,1.62,0,0,0,1.35-1.28,38.66,38.66,0,0,0,.27-6.55c0-4.85-.09-6-.58-6.64-.27-.35-.46-.45-1.1-.57l-.75-.15c-.15,0-.16-.08-.16-.44s0-.41.16-.47,7.51-1.55,7.74-1.55h.18l0,1.09c0,.59,0,1.46-.07,1.93l0,.84.26-.47a6.62,6.62,0,0,1,3.06-3,4.08,4.08,0,0,1,2-.41c1,0,2,.33,2,.66m28.89,6.72-2.66.07-1.38,0v-.3a8.48,8.48,0,0,1,.11-1c.46-3,1.56-4.73,2.94-4.74s2.06,1.75,2.22,5l0,.91ZM83.26,8a9.08,9.08,0,0,0-7.42.18,8.62,8.62,0,0,0-4.48,5.29,10.45,10.45,0,0,0-.52,4A10.31,10.31,0,0,0,71,19.6a8.74,8.74,0,0,0,7.11,7,14.14,14.14,0,0,0,3.44,0,9.36,9.36,0,0,0,3.34-1.29c1-.69,2.08-1.73,2.08-2.06s-.35-.65-.51-.65a2.7,2.7,0,0,0-.63.33,5.63,5.63,0,0,1-3.31.92,5.26,5.26,0,0,1-4.19-1.65,4.77,4.77,0,0,1-1-1.33,9.06,9.06,0,0,1-1-4l0-.65h5.44l5.44,0,0-.37a7.93,7.93,0,0,0-.06-1.18c-.33-3.3-1.67-5.58-3.95-6.72m19,12.74A4.56,4.56,0,0,1,102,22.5a6.13,6.13,0,0,1-4.64,4,7.79,7.79,0,0,1-2.54.24c-.93,0-1.82,0-2,0a20,20,0,0,1-4.09-.9l-.34-.14,0-1.68c0-.93,0-2.16-.06-2.75l0-1.06.2-.1A1.47,1.47,0,0,1,89,20l.3,0,.25.63c1,2.44,2.16,3.75,3.67,4.15a4.79,4.79,0,0,0,2.1,0,2.58,2.58,0,0,0,1.86-2.57c0-1.47-.8-2.18-3.85-3.37A8.1,8.1,0,0,1,90,16.88a4.63,4.63,0,0,1-1.33-3.23,5.43,5.43,0,0,1,1.58-4.26,7.08,7.08,0,0,1,4.72-2,15.19,15.19,0,0,1,6,.83l.26.11,0,1.5c0,.82.06,1.93.06,2.45v1l-.35.13c-.56.21-.6.18-.92-.65-.87-2.32-1.89-3.42-3.48-3.76a2.42,2.42,0,0,0-3,2.3A2.06,2.06,0,0,0,94.13,13a9.78,9.78,0,0,0,3.52,2c2.39,1,3.52,1.85,4.14,3.08a4.84,4.84,0,0,1,.48,2.68M9.68,2.89c-.07.72-.19,5.38-.19,7.57v2.19h.68c.38,0,1.11,0,1.64-.06a3.23,3.23,0,0,0,1.36-.24,3.49,3.49,0,0,0,1.71-2.56l.18-.7.6,0,.6,0v8.83l-.6,0-.61,0-.16-.7a3.69,3.69,0,0,0-1.7-2.59,11,11,0,0,0-2.91-.29l-.79,0v1.66c0,1.81.1,4.26.23,5.59.18,1.85.65,2.87,1.5,3.24a6.38,6.38,0,0,0,1.14.26,6.54,6.54,0,0,1,1,.19c.18.09.19,1.05,0,1.12s-13.12,0-13.25,0S0,26.07,0,25.73c0-.61,0-.58,1.14-.8a2.12,2.12,0,0,0,1.62-.87c.78-1,.94-3,.94-11,0-7.55-.14-9.14-.94-10.31a2.5,2.5,0,0,0-2-.92L0,1.73l0-.6L0,.52l.24,0c.14,0,4.81,0,10.39,0l10.15,0,0,.29c0,.16.07,1.82.1,3.69l0,3.39L20.44,8c-.78.24-.78.24-1.13-.69C18.43,5,17.44,3.69,16.07,3c-.94-.46-1.38-.52-4-.52H9.72Zm18.4,22.37h0c-2,.59-3.45-1.32-4-5.33a37,37,0,0,1,0-6.31c.39-3.23,1.39-4.87,3-4.87a2,2,0,0,1,1.66.73c1.31,1.33,1.94,3.86,1.93,7.84,0,3.17-.33,5.17-1,6.52a3.05,3.05,0,0,1-1.51,1.42m8.18-9.78c-.38-3.26-1.76-5.65-4-7a10.21,10.21,0,0,0-9.13-.2,8.81,8.81,0,0,0-4.31,5.1,13.15,13.15,0,0,0,0,7.56,8.22,8.22,0,0,0,2.11,3.55,8,8,0,0,0,4.53,2.19,19.25,19.25,0,0,0,3.31,0,9.32,9.32,0,0,0,1.2-.27,8.74,8.74,0,0,0,6.2-7,17.33,17.33,0,0,0,.14-4"></path></g></g></svg> 